<?xml version="1.0" encoding="iso-8859-1"?>
<!-- Generator: Adobe Illustrator 18.1.1, SVG Export Plug-In . SVG Version: 6.00 Build 0)  -->
<svg version="1.1" id="Capa_1" xmlns="http://www.w3.org/2000/svg" xmlns:xlink="http://www.w3.org/1999/xlink" x="0px" y="0px"
	 viewBox="0 0 36.718 36.718" style="enable-background:new 0 0 36.718 36.718;" xml:space="preserve">
<g>
	<path style="fill:#FFFFFF;" d="M8.08,18.355l-7.882,7.433c-0.121,0.115-0.191,0.27-0.196,0.437s0.056,0.325,0.17,0.446l8.82,9.354
		c0.115,0.122,0.271,0.191,0.432,0.196l0.041,0.001c0.153,0,0.291-0.058,0.411-0.171l8.484-8l8.484,8
		c0.115,0.11,0.268,0.171,0.447,0.171c0.166-0.005,0.321-0.075,0.437-0.196l8.821-9.355c0.234-0.251,0.223-0.647-0.027-0.883
		l-7.882-7.433l7.882-7.434c0.119-0.113,0.19-0.272,0.195-0.436c0.005-0.167-0.056-0.327-0.171-0.448l-8.822-9.353
		c-0.225-0.242-0.643-0.252-0.884-0.026l-8.481,7.999L9.877,0.658C9.637,0.43,9.222,0.443,8.993,0.683l-8.822,9.353
		C0.056,10.157-0.005,10.316,0,10.484c0.005,0.165,0.077,0.324,0.197,0.436L8.08,18.355z M9.465,36.098l-0.001-0.006
		c0,0,0,0,0.001,0V36.098z M9.475,1.997l8.456,7.975c0.232,0.22,0.625,0.22,0.857,0l8.456-7.975l7.965,8.444L27.3,17.9
		c-0.124,0.118-0.195,0.284-0.195,0.455s0.071,0.337,0.195,0.455l7.909,7.459l-7.961,8.444l-8.46-7.976
		c-0.232-0.22-0.626-0.219-0.857,0l-8.458,7.976L1.51,26.269l7.908-7.458c0.126-0.117,0.198-0.283,0.198-0.456
		c0-0.172-0.072-0.338-0.197-0.455L1.51,10.441L9.475,1.997z"/>
</g>
</svg>
