<svg width="55" height="55" viewBox="0 0 55 55" fill="none" xmlns="http://www.w3.org/2000/svg">
<path opacity="0.2" d="M49.428 26.8299C49.6423 39.097 39.87 49.2153 27.6016 49.4299C15.3384 49.6431 5.21948 39.8711 5.00605 27.6044C4.79007 15.3363 14.5613 5.21687 26.8264 5.00313C39.0942 4.78867 49.2129 14.5623 49.4273 26.8301L49.428 26.8299Z" fill="#F7931A"/>
<path fill-rule="evenodd" clip-rule="evenodd" d="M33.0123 22.9901C32.7826 20.975 31.0282 20.3287 28.8249 20.1744L28.7759 17.3744L27.0712 17.4044L27.1188 20.1306C26.6713 20.1384 26.2134 20.1552 25.7586 20.1722L25.7109 17.428L24.0075 17.4577L24.0557 20.2569C23.6869 20.2708 23.3246 20.284 22.9713 20.2904L22.9709 20.2817L20.6202 20.322L20.6524 22.1422C20.6524 22.1422 21.9106 22.0963 21.8901 22.1198C22.5804 22.108 22.8125 22.5047 22.8835 22.8495L22.9393 26.0393C22.987 26.0387 23.0491 26.0396 23.1197 26.0481L22.9401 26.0513L23.0172 30.52C22.9907 30.7378 22.869 31.0864 22.3867 31.0957C22.4089 31.1146 21.1478 31.117 21.1478 31.117L20.8448 33.1588L23.0632 33.1198C23.3137 33.1158 23.5618 33.1141 23.8071 33.1125L23.8072 33.1125L23.8074 33.1125C23.9663 33.1115 24.124 33.1104 24.2805 33.1087L24.3308 35.941L26.0333 35.9116L25.9848 33.1095C26.4519 33.1112 26.9044 33.107 27.346 33.0989L27.394 35.8879L29.0983 35.858L29.0495 33.0311C31.912 32.8167 33.9053 32.0597 34.1065 29.3653C34.2698 27.1952 33.2342 26.2461 31.6007 25.8834C32.5798 25.3621 33.1821 24.4648 33.0119 22.9902L33.0123 22.9901ZM30.7331 29.087C30.7675 31.0295 27.7148 31.0399 26.3193 31.0447C26.1943 31.0451 26.0827 31.0455 25.9877 31.0472L25.9226 27.2952C26.0387 27.2932 26.1797 27.2874 26.3394 27.2808C27.7687 27.2221 30.6978 27.1018 30.7336 29.0869L30.7331 29.087ZM26.1731 25.5762C27.3382 25.5749 29.8779 25.5721 29.8476 23.8074C29.8163 22.002 27.3748 22.1095 26.1824 22.162C26.0484 22.1679 25.9301 22.1731 25.8328 22.1749L25.8921 25.5778C25.9724 25.5764 26.0671 25.5763 26.1731 25.5762Z" fill="#F7931A"/>
</svg>
