<svg xmlns="http://www.w3.org/2000/svg" xmlns:xlink="http://www.w3.org/1999/xlink" version="1.1" width="1000" height="1000" viewBox="0 0 1000 1000" xml:space="preserve">
<desc>Created with Fabric.js 3.5.0</desc>
<defs>
</defs>
<rect x="0" y="0" width="100%" height="100%" fill="#ffffff"/>
<g transform="matrix(1 0 0 1 500 500)" id="609365">
<rect style="stroke: none; stroke-width: 1; stroke-dasharray: none; stroke-linecap: butt; stroke-dashoffset: 0; stroke-linejoin: miter; stroke-miterlimit: 4; is-custom-font: none; font-file-url: none; fill: rgb(255,255,255); fill-rule: nonzero; opacity: 1;" vector-effect="non-scaling-stroke" x="-20" y="-21" rx="16" ry="16" width="40" height="42"/>
</g>
<g transform="matrix(1 0 0 1 500 500)" id="11103">
<rect style="stroke: none; stroke-width: 1; stroke-dasharray: none; stroke-linecap: butt; stroke-dashoffset: 0; stroke-linejoin: miter; stroke-miterlimit: 4; is-custom-font: none; font-file-url: none; fill: rgb(163,152,152); fill-rule: nonzero; opacity: 1;" vector-effect="non-scaling-stroke" x="-8.5" y="-8.5" rx="8.5" ry="8.5" width="17" height="17"/>
</g>
<g transform="matrix(1 0 0 1 500 500)" id="996118">
<rect style="stroke: none; stroke-width: 1; stroke-dasharray: none; stroke-linecap: butt; stroke-dashoffset: 0; stroke-linejoin: miter; stroke-miterlimit: 4; is-custom-font: none; font-file-url: none; fill: rgb(255,255,255); fill-rule: nonzero; opacity: 1;" vector-effect="non-scaling-stroke" x="-20" y="-21" rx="16" ry="16" width="40" height="42"/>
</g>
<g transform="matrix(1 0 0 1 500 500)" id="857363">
<rect style="stroke: none; stroke-width: 1; stroke-dasharray: none; stroke-linecap: butt; stroke-dashoffset: 0; stroke-linejoin: miter; stroke-miterlimit: 4; is-custom-font: none; font-file-url: none; fill: rgb(255,255,255); fill-rule: nonzero; opacity: 1;" vector-effect="non-scaling-stroke" x="-20" y="-21" rx="16" ry="16" width="40" height="42"/>
</g>
<g transform="matrix(1 0 0 1 500 500)" id="296958">
<rect style="stroke: none; stroke-width: 1; stroke-dasharray: none; stroke-linecap: butt; stroke-dashoffset: 0; stroke-linejoin: miter; stroke-miterlimit: 4; is-custom-font: none; font-file-url: none; fill: rgb(163,152,152); fill-rule: nonzero; opacity: 1;" vector-effect="non-scaling-stroke" x="-8.5" y="-8.5" rx="8.5" ry="8.5" width="17" height="17"/>
</g>
</svg>