<svg width="45" height="46" viewBox="0 0 45 46" fill="none" xmlns="http://www.w3.org/2000/svg">
<path opacity="0.2" fill-rule="evenodd" clip-rule="evenodd" d="M22.2217 45.2616C34.4944 45.2616 44.4435 35.3126 44.4435 23.0399C44.4435 10.7672 34.4944 0.818184 22.2217 0.818184C9.94901 0.818184 0 10.7672 0 23.0399C0 35.3126 9.94901 45.2616 22.2217 45.2616Z" fill="#83BD67"/>
<path fill-rule="evenodd" clip-rule="evenodd" d="M20.2749 12.7837C21.4954 12.7837 22.7113 12.7837 23.9317 12.7837C23.8599 13.6093 23.7836 14.4394 23.7163 15.265C25.1387 15.3682 26.5251 15.8258 27.7724 16.5033C27.234 17.8583 26.6911 19.2134 26.1482 20.5684C25.0983 19.6755 23.7163 19.182 22.3389 19.1999C21.9934 19.2089 21.6344 19.2762 21.3473 19.4736C21.1588 19.6037 21.0198 19.8056 20.9794 20.03C20.948 20.2095 20.9569 20.4114 21.0556 20.5729C21.1678 20.7524 21.3652 20.86 21.5627 20.9273C21.9665 21.0709 22.4017 21.0799 22.8235 21.1248C23.8151 21.2459 24.8111 21.4164 25.7489 21.7709C26.4758 22.0491 27.1712 22.4663 27.6693 23.0765C28.1404 23.6374 28.4141 24.3463 28.5173 25.0732C28.6384 25.9122 28.6025 26.7827 28.3423 27.5993C28.1404 28.2544 27.7949 28.8646 27.3462 29.3806C26.4174 30.4574 25.0534 31.1035 23.6535 31.2695C23.6984 32.1534 23.7522 33.0328 23.8016 33.9168C22.644 33.9168 21.4909 33.9168 20.3378 33.9168C20.3826 33.0418 20.4409 32.1669 20.4813 31.292C19.5526 31.2605 18.6328 31.0542 17.7668 30.7266C16.9278 30.408 16.1291 29.9863 15.3843 29.4927C15.9317 28.0839 16.4791 26.675 17.0309 25.2616C17.6546 25.7866 18.3187 26.2757 19.0455 26.6481C19.8263 27.0474 20.6922 27.3032 21.5716 27.3121C21.9889 27.3166 22.4196 27.2942 22.8145 27.1506C23.0568 27.0609 23.2946 26.9038 23.4023 26.657C23.5144 26.3968 23.5055 26.0693 23.335 25.836C23.2138 25.6789 23.0433 25.5712 22.8638 25.495C22.6216 25.3962 22.3703 25.3424 22.1145 25.302C21.1723 25.1495 20.2256 25.0238 19.3148 24.7277C18.5834 24.4899 17.87 24.1579 17.2867 23.6464C16.9188 23.3278 16.6137 22.9375 16.3983 22.4977C16.0753 21.8427 15.9541 21.1023 15.9631 20.3755C15.9631 19.5633 16.1291 18.7378 16.5329 18.0244C16.8829 17.3872 17.4168 16.8668 18.0181 16.4674C18.7449 15.9873 19.557 15.6598 20.3826 15.3951C20.3467 14.5246 20.3108 13.6542 20.2749 12.7837Z" fill="#83BD67"/>
</svg>

